<?xml version="1.0" encoding="UTF-8"?>
<svg width="75px" height="75px" viewBox="0 0 75 75" version="1.1" xmlns="http://www.w3.org/2000/svg" xmlns:xlink="http://www.w3.org/1999/xlink">
    <!-- Generator: Sketch 42 (36781) - http://www.bohemiancoding.com/sketch -->
    <title>Slice 1</title>
    <desc>Created with Sketch.</desc>
    <defs></defs>
    <g id="Page-1" stroke="none" stroke-width="1" fill="none" fill-rule="evenodd">
        <g id="connect_tracker_icon" transform="translate(14.000000, 14.000000)" fill-rule="nonzero">
            <g id="Group">
                <polygon id="Rectangle-29" fill="#1A4A7F" points="16.8210526 30.1377193 30.0964912 30.1377193 31.3333333 31.2921053 31.3333333 47 15.6666667 47 15.6666667 31.3745614"></polygon>
                <polygon id="Rectangle-29_5_" fill="#2567B3" points="0 0 15.6666667 0 16.8210526 1.03070175 16.8210526 14.7184211 15.6666667 15.6666667 0 15.6666667"></polygon>
                <polygon id="Rectangle-29_4_" fill="#2567B3" points="30.2614035 1.07192982 31.3333333 0 47 0 47 15.6666667 31.3333333 15.6666667 30.2614035 14.6359649"></polygon>
                <polygon id="Rectangle-29_3_" fill="#338EF5" points="15.6666667 0 31.3333333 0 31.3333333 15.6666667 30.2614035 16.6561404 16.8210526 16.6561404 15.6666667 15.6666667"></polygon>
                <polygon id="Rectangle-29_1_" fill="#2567B3" points="15.6666667 15.6666667 31.3333333 15.6666667 31.3333333 31.3333333 15.6666667 31.3333333"></polygon>
            </g>
        </g>
    </g>
</svg>